<svg xmlns="http://www.w3.org/2000/svg" width="889" height="434" viewBox="0 0 889 434">
<g>
<path d="M 250.00 383.65 C250.00,383.84 249.89,383.98 249.75,383.95 C249.00,383.78 206.50,354.02 192.21,343.64 C180.06,334.83 149.38,314.00 148.54,314.00 C148.18,314.00 148.20,314.52 148.60,315.15 C149.08,315.94 148.86,316.04 147.90,315.46 C140.32,310.85 103.20,287.51 98.77,284.56 C95.62,282.46 93.26,280.39 93.52,279.96 C93.79,279.53 86.92,274.41 78.25,268.57 C62.90,258.23 54.06,251.61 58.68,253.91 C58.85,253.99 59.01,254.08 59.15,254.16 C59.61,254.40 59.96,254.59 60.27,254.54 C61.41,254.34 61.98,250.82 65.08,234.55 L 68.31 217.61 L 55.29 205.05 L 42.28 192.50 L 40.08 166.00 C36.27,119.92 35.27,104.52 36.02,103.68 C36.42,103.23 40.93,101.79 46.04,100.49 C55.32,98.13 55.33,98.13 59.12,100.06 C61.21,101.13 64.69,102.00 66.86,102.00 L 70.79 102.00 L 72.55 92.02 C73.62,85.93 74.92,81.51 75.90,80.67 C78.25,78.65 95.86,71.32 108.55,67.08 C114.63,65.05 120.70,62.62 122.05,61.67 C128.53,57.11 155.62,50.56 172.80,49.40 C183.42,48.69 184.24,48.12 177.68,46.02 C175.58,45.35 174.09,44.58 174.37,44.30 C175.30,43.36 219.41,58.79 238.50,66.72 C262.46,76.68 275.56,85.10 302.12,107.59 C306.73,111.49 311.03,115.33 311.68,116.12 C312.34,116.90 313.60,122.94 314.50,129.52 L 316.14 141.50 L 321.26 146.73 L 326.38 151.95 L 327.27 180.15 C327.82,197.75 327.79,213.27 327.18,221.43 C326.13,235.67 326.86,233.31 311.26,272.50 C302.44,294.63 268.80,372.14 268.25,371.58 C268.09,371.42 268.65,366.84 269.50,361.39 C272.43,342.62 274.94,323.23 274.80,320.37 C274.73,318.79 275.00,316.60 275.42,315.50 C275.94,314.11 275.50,314.34 273.99,316.26 C272.80,317.77 271.45,318.78 270.98,318.49 C270.52,318.20 269.81,318.49 269.41,319.14 C268.94,319.91 269.13,320.04 269.98,319.52 C270.84,318.98 271.09,319.18 270.75,320.11 C270.48,320.87 269.76,321.39 269.16,321.26 C268.56,321.13 268.31,321.65 268.60,322.41 C268.90,323.17 268.59,324.14 267.91,324.55 C267.08,325.07 266.95,324.89 267.50,324.00 C268.05,323.11 267.92,322.93 267.09,323.45 C266.41,323.86 266.11,324.86 266.42,325.65 C266.73,326.45 266.57,326.85 266.07,326.54 C265.57,326.23 263.10,329.28 260.58,333.32 C256.40,340.03 256.00,341.22 256.00,347.00 C256.00,355.08 255.19,354.46 254.89,346.15 C254.62,338.69 253.65,337.20 243.97,329.48 C240.23,326.49 234.42,321.51 231.08,318.41 C227.74,315.32 225.00,313.07 225.00,313.41 C225.00,313.98 230.47,319.24 241.50,329.30 C243.70,331.30 245.18,332.96 244.78,332.97 C244.39,332.99 242.69,331.65 241.00,330.00 C237.92,326.99 235.24,325.92 236.62,328.25 C237.03,328.94 235.27,327.59 232.70,325.25 C230.14,322.91 227.83,321.00 227.56,321.00 C227.30,321.00 227.21,322.55 227.36,324.44 C227.74,329.38 226.24,327.81 225.44,322.43 C225.06,319.94 224.55,318.12 224.28,318.38 C223.63,319.03 227.59,341.77 231.06,357.31 C233.27,367.21 234.44,370.56 236.21,372.08 C237.47,373.16 241.09,376.13 244.25,378.67 C247.41,381.21 250.00,383.45 250.00,383.65 ZM 100.11 255.25 C104.06,266.11 107.53,275.00 107.82,275.00 C108.10,275.00 113.99,271.69 120.92,267.64 C127.84,263.60 135.86,258.98 138.75,257.39 C141.64,255.80 144.00,254.03 144.00,253.46 C144.00,252.89 143.27,249.74 142.38,246.46 C141.48,243.18 135.73,221.27 129.58,197.77 L 118.41 155.05 L 107.45 148.37 C101.43,144.71 88.18,136.64 78.00,130.45 C67.82,124.26 55.03,116.46 49.57,113.12 C44.10,109.77 39.44,107.23 39.20,107.47 C38.56,108.11 41.08,131.41 41.85,132.01 C42.21,132.29 47.90,136.06 54.50,140.39 C68.45,149.54 85.77,161.16 98.35,169.80 C111.70,178.97 111.96,179.47 121.51,213.32 C121.85,214.54 122.18,215.72 122.51,216.87 C130.93,246.73 132.15,251.07 130.51,253.37 C130.17,253.85 129.71,254.24 129.16,254.76 C125.54,258.15 109.00,269.01 109.00,268.00 C109.00,266.93 112.95,263.68 121.78,257.50 C125.70,254.75 128.93,252.01 128.96,251.42 C129.01,249.99 113.71,194.04 111.34,187.04 L 109.50 181.57 L 82.50 163.78 C54.96,145.63 42.73,137.95 42.20,138.47 C41.84,138.83 45.85,186.66 46.49,189.56 C46.74,190.69 56.52,199.96 68.24,210.17 C81.03,221.31 90.21,230.08 91.22,232.11 C92.15,233.98 96.15,244.39 100.11,255.25 ZM 336.50 276.99 C336.17,277.54 334.96,278.49 333.82,279.09 C330.07,281.10 332.78,278.28 341.81,270.78 C346.59,266.81 355.79,258.93 362.26,253.28 C368.72,247.63 374.45,243.00 374.99,243.00 C375.53,243.00 376.26,244.75 376.60,246.89 C377.16,250.42 377.55,250.83 380.86,251.38 C382.86,251.71 395.98,251.98 410.00,251.98 L 435.50 251.99 L 441.25 247.41 C450.17,240.32 449.64,239.29 434.75,234.66 C390.10,220.78 363.95,212.20 362.65,210.99 C362.18,210.55 362.53,204.64 363.42,197.85 L 365.05 185.50 L 369.28 181.62 C371.60,179.49 376.76,175.32 380.75,172.36 L 388.01 166.98 L 439.67 167.24 L 491.33 167.50 L 477.54 179.75 C469.95,186.49 463.38,192.00 462.95,192.00 C462.51,192.00 461.86,190.66 461.50,189.01 C460.79,185.76 459.00,183.92 459.00,186.44 C459.00,187.82 455.61,188.00 430.10,188.00 L 401.19 188.00 L 396.36 192.37 L 391.53 196.75 L 406.52 201.43 C414.76,204.00 428.48,208.29 437.00,210.97 C445.52,213.65 457.45,217.28 463.50,219.04 C469.55,220.80 474.81,222.52 475.19,222.87 C475.57,223.22 475.38,229.69 474.77,237.27 L 473.65 251.03 L 464.66 258.77 C459.71,263.02 453.47,268.34 450.78,270.59 L 445.89 274.69 L 427.79 275.34 C417.83,275.70 393.35,276.00 373.40,276.00 C350.42,276.00 336.89,276.36 336.50,276.99 ZM 248.99 322.73 C253.86,327.29 255.44,328.00 254.60,325.25 C253.69,322.27 253.67,317.49 254.47,286.36 L 255.25 256.21 L 240.29 240.36 C223.92,223.00 207.84,205.42 204.12,200.81 L 201.74 197.86 L 205.05 194.44 C206.87,192.57 208.17,190.84 207.93,190.62 C207.53,190.23 186.80,180.40 159.44,167.63 C152.81,164.53 147.14,162.00 146.85,162.00 C146.56,162.00 147.85,168.64 149.71,176.75 C151.57,184.86 153.59,193.89 154.20,196.80 C155.25,201.90 155.76,202.52 167.39,212.80 C174.03,218.69 182.27,226.20 185.69,229.50 L 191.91 235.50 L 197.09 252.50 C199.94,261.85 203.28,273.31 204.52,277.96 C207.07,287.49 205.54,285.83 232.56,308.50 C239.11,314.00 246.51,320.40 248.99,322.73 ZM 713.81 264.48 C714.10,264.76 699.48,265.00 681.32,265.00 L 648.30 265.00 L 642.88 259.25 C639.89,256.09 635.77,251.42 633.71,248.89 L 629.98 244.27 L 630.65 229.52 L 631.32 214.78 L 639.41 207.84 L 647.50 200.91 L 666.25 201.20 L 685.00 201.50 L 685.00 191.94 C685.00,182.62 684.92,182.30 682.00,179.50 C680.35,177.92 679.00,176.26 679.00,175.81 C679.00,175.37 684.90,175.00 692.11,175.00 C702.55,175.00 705.11,175.27 704.71,176.32 C704.43,177.05 704.05,195.50 703.87,217.34 L 703.55 257.03 L 708.42 260.49 C711.10,262.40 713.52,264.19 713.81,264.48 ZM 239.50 130.36 C247.20,133.44 254.03,135.97 254.68,135.98 C256.09,136.00 261.10,130.09 263.61,125.42 C265.76,121.43 265.32,119.71 258.50,105.50 C248.49,84.64 231.35,68.33 209.17,58.55 C192.51,51.20 190.08,50.65 177.57,51.30 C171.48,51.62 162.68,52.62 158.00,53.52 C150.45,54.99 131.97,60.35 129.61,61.76 C129.12,62.05 131.58,63.37 135.08,64.68 C138.58,66.00 147.75,70.14 155.47,73.90 C170.40,81.16 184.07,90.63 206.00,108.92 C224.26,124.15 224.78,124.48 239.50,130.36 ZM 213.00 183.29 C215.53,184.22 216.71,184.06 217.90,182.63 C218.78,181.55 218.54,180.93 216.77,179.78 C211.72,176.49 184.81,162.86 184.32,163.34 C184.04,163.63 185.99,165.00 188.65,166.38 C196.01,170.21 193.33,169.49 183.73,165.05 C174.77,160.91 170.48,157.56 178.59,161.04 C184.37,163.52 185.55,162.85 180.57,159.91 C178.06,158.43 177.08,157.24 177.48,156.20 C177.80,155.35 177.49,154.29 176.78,153.85 C174.70,152.52 174.00,152.86 174.00,155.20 C174.00,159.61 172.07,155.37 169.45,145.19 C167.99,139.51 166.98,134.69 167.20,134.47 C167.42,134.24 168.83,137.83 170.33,142.43 C172.62,149.47 173.46,150.90 175.56,151.43 C176.94,151.77 178.49,153.15 179.00,154.50 C179.51,155.84 180.84,157.51 181.96,158.21 C183.08,158.91 184.00,159.96 184.00,160.56 C184.00,161.15 192.15,165.55 202.12,170.34 L 220.24 179.05 L 227.46 173.77 C253.10,155.03 255.90,152.64 255.95,149.32 C256.00,146.37 255.61,146.00 250.46,144.07 C247.42,142.93 244.68,142.00 244.38,142.00 C242.16,142.00 200.87,123.72 194.97,120.13 C193.06,118.96 190.29,118.01 188.81,118.00 C186.10,118.00 184.27,116.57 185.78,115.64 C186.52,115.18 194.96,118.82 226.50,133.18 C234.87,136.99 253.75,144.00 255.65,144.00 C255.77,144.00 255.81,143.13 255.73,142.06 C255.63,140.71 254.19,139.61 251.04,138.49 C238.75,134.08 224.25,128.15 212.50,122.72 C205.35,119.42 196.12,115.28 192.00,113.52 L 184.50 110.34 L 171.75 116.67 C164.74,120.16 159.00,123.35 159.01,123.76 C159.01,124.17 160.42,129.68 162.14,136.00 C163.86,142.32 166.11,150.61 167.13,154.41 C168.16,158.21 169.11,161.44 169.25,161.57 C169.68,161.99 211.40,182.71 213.00,183.29 ZM 359.04 265.69 C357.82,266.77 364.95,267.00 400.18,267.00 L 442.78 267.00 L 454.90 256.88 C461.63,251.25 467.22,245.81 467.47,244.63 C468.78,238.38 470.00,224.62 469.31,224.01 C468.86,223.62 460.17,220.72 450.00,217.56 C439.83,214.40 421.77,208.70 409.88,204.91 C397.99,201.11 387.58,198.00 386.74,198.00 C385.90,198.00 384.92,196.82 384.56,195.38 C383.79,192.33 385.18,190.51 392.12,185.41 L 396.77 182.00 L 459.51 182.00 L 465.78 176.86 C469.23,174.04 471.80,171.46 471.48,171.14 C471.16,170.82 453.14,170.46 431.44,170.33 L 391.98 170.11 L 384.24 175.98 C369.95,186.82 370.04,186.71 368.79,194.34 C367.93,199.60 367.95,201.35 368.88,201.92 C369.54,202.33 389.53,209.14 413.29,217.05 C437.06,224.96 455.53,231.58 454.34,231.77 C452.52,232.06 452.08,233.01 451.52,237.81 C450.87,243.36 450.68,243.64 443.97,249.25 L 437.09 255.00 L 406.54 255.00 C380.06,255.00 376.00,254.80 376.00,253.50 C376.00,252.68 375.72,252.00 375.38,252.00 C374.88,252.00 366.20,259.27 359.04,265.69 ZM 629.47 263.12 C631.40,264.96 630.94,265.00 606.97,264.81 C593.51,264.70 579.72,264.46 576.33,264.26 L 570.16 263.91 L 554.56 246.72 L 555.14 216.50 L 569.45 202.00 L 597.22 202.00 C612.50,202.00 624.98,202.34 624.96,202.75 C624.93,203.16 624.30,208.62 623.56,214.87 L 622.20 226.24 L 610.56 238.00 L 592.34 238.00 C581.58,238.00 573.87,238.40 573.52,238.98 C573.18,239.51 574.79,241.99 577.08,244.48 L 581.25 249.00 L 613.80 249.00 L 620.65 255.12 C624.42,258.49 628.39,262.09 629.47,263.12 ZM 786.30 262.75 L 789.44 265.00 L 759.47 264.95 L 729.50 264.91 L 721.25 257.09 L 713.00 249.26 L 713.00 216.16 L 728.50 202.01 L 781.28 202.00 L 780.63 214.25 L 779.97 226.50 L 773.85 232.25 L 767.73 238.00 L 749.86 238.00 C733.34,238.00 732.00,238.13 732.00,239.80 C732.00,240.79 733.71,243.26 735.79,245.30 L 739.58 249.00 L 770.28 249.00 L 776.72 254.75 C780.27,257.91 784.58,261.51 786.30,262.75 ZM 635.00 244.84 L 650.12 257.00 L 674.06 257.00 C696.21,257.00 698.00,256.87 697.96,255.25 C697.95,254.29 697.29,252.38 696.50,251.00 C695.34,248.98 695.06,242.32 695.04,216.25 L 695.00 184.00 L 689.00 184.00 L 689.00 195.50 L 689.00 196.24 C689.00,203.01 689.00,205.95 687.73,206.69 C686.75,207.25 685.01,206.51 681.94,205.19 L 681.50 205.00 C677.60,203.33 674.61,203.00 663.35,203.00 L 649.86 203.00 L 642.43 209.73 L 635.00 216.46 ZM 214.50 353.55 C218.90,356.99 222.63,359.69 222.78,359.54 C222.94,359.39 219.91,353.70 216.06,346.88 C212.20,340.07 206.01,328.98 202.29,322.23 C195.03,309.03 192.29,306.04 155.60,271.28 L 143.77 260.07 L 133.13 266.64 C127.28,270.25 120.07,274.68 117.10,276.49 L 111.71 279.76 L 114.60 281.60 C117.43,283.40 161.64,314.94 191.50,336.47 C199.75,342.42 210.10,350.10 214.50,353.55 ZM 149.00 120.16 C152.62,122.10 155.02,122.23 155.22,120.50 C155.28,119.95 145.69,114.52 133.91,108.42 C112.79,97.50 91.93,86.05 93.10,86.02 C93.43,86.01 108.28,93.42 126.10,102.49 C143.92,111.56 158.73,118.98 159.00,118.97 C159.27,118.97 164.59,116.35 170.81,113.16 L 182.12 107.35 L 175.81 101.81 C164.37,91.77 153.73,84.86 136.50,76.30 C123.65,69.91 118.84,67.98 116.81,68.39 C110.41,69.67 78.28,82.61 79.20,83.54 C79.45,83.79 84.18,86.20 89.70,88.90 C95.22,91.60 110.04,99.32 122.62,106.05 C135.20,112.78 147.07,119.13 149.00,120.16 ZM 551.99 248.50 L 539.50 263.22 L 521.00 263.36 C510.83,263.44 501.34,263.37 499.93,263.20 C498.29,263.01 494.70,260.23 490.09,255.59 L 482.82 248.28 L 483.16 231.50 L 483.50 214.72 L 498.50 201.00 L 527.96 201.00 C552.77,201.00 557.20,201.21 555.96,202.35 C555.16,203.09 551.66,206.02 548.20,208.85 L 541.90 214.00 L 525.41 214.00 C524.59,214.00 523.79,214.00 523.03,214.00 C512.46,213.99 507.75,213.98 505.66,216.32 C503.98,218.20 503.99,221.59 504.00,227.70 C504.00,228.25 504.00,228.82 504.00,229.42 L 504.00 241.61 L 507.28 244.78 L 510.55 247.96 L 531.27 248.23 ZM 257.00 321.29 C257.00,322.96 257.19,324.15 257.41,323.92 C258.86,322.46 280.55,285.84 281.65,283.00 C282.40,281.08 284.78,267.12 286.94,252.00 L 290.87 224.50 L 297.43 210.66 C301.05,203.05 304.00,196.19 304.00,195.41 C304.00,192.43 302.38,194.26 299.27,200.76 C294.04,211.67 289.11,220.46 288.02,220.83 C286.27,221.41 286.90,218.62 289.32,214.98 C290.60,213.07 293.76,207.68 296.35,203.00 C298.93,198.32 301.55,193.79 302.16,192.92 C302.98,191.76 302.95,188.27 302.02,179.67 C301.33,173.25 300.48,168.02 300.13,168.04 C299.78,168.06 297.12,171.91 294.20,176.60 C288.67,185.50 288.40,187.24 292.03,190.52 C293.11,191.51 294.00,192.99 294.00,193.82 C294.00,195.86 288.31,206.11 271.97,233.50 L 258.25 256.50 L 257.73 286.31 C257.45,302.70 257.41,315.93 257.64,315.69 C257.88,315.46 262.40,307.89 267.70,298.88 L 277.32 282.50 L 281.55 253.50 C283.87,237.55 285.82,225.85 285.88,227.50 C285.99,230.54 284.78,240.39 280.97,267.46 C278.91,282.18 278.79,282.56 273.60,291.46 C270.70,296.43 266.45,303.93 264.16,308.13 C261.87,312.33 259.32,316.32 258.50,317.00 C257.67,317.69 257.00,319.61 257.00,321.29 ZM 155.50 159.49 C160.64,161.95 162.00,162.37 162.00,161.49 C162.00,160.21 153.87,124.60 153.41,123.85 C153.12,123.38 152.30,123.00 151.58,123.00 C150.86,123.00 144.75,120.28 138.01,116.96 C131.26,113.64 125.51,111.16 125.22,111.45 C124.93,111.73 124.20,111.30 123.60,110.48 C122.47,108.96 117.35,105.90 108.50,101.46 C105.75,100.07 100.80,97.40 97.50,95.52 C90.51,91.53 90.03,91.42 89.90,93.75 C89.84,94.85 89.54,94.57 89.11,93.00 C88.67,91.38 86.68,89.55 83.46,87.80 L 83.43 87.78 C80.98,86.46 79.56,85.68 78.65,86.08 C77.37,86.65 77.13,89.55 76.52,96.56 C76.15,100.93 75.64,105.24 75.38,106.16 C75.06,107.33 76.50,108.71 80.33,110.91 C83.31,112.61 86.03,114.00 86.37,114.00 C86.72,114.00 87.06,112.76 87.13,111.25 C87.25,108.79 87.33,108.86 87.88,111.92 C88.53,115.53 88.49,115.49 102.08,122.91 C113.59,129.20 122.39,134.21 126.00,136.53 C127.93,137.77 131.52,139.84 134.00,141.14 C136.48,142.44 138.86,144.06 139.30,144.75 C139.74,145.44 140.95,146.00 141.99,146.00 C143.47,146.00 144.03,147.00 144.57,150.60 C145.13,154.35 145.74,155.37 147.88,156.14 C149.32,156.66 152.75,158.17 155.50,159.49 ZM 845.50 265.06 C850.42,265.41 844.84,265.70 830.97,265.81 L 808.45 266.00 L 801.72 259.22 L 795.00 252.45 L 795.00 185.33 L 781.19 172.00 L 799.52 172.00 L 807.76 179.58 L 816.00 187.16 L 816.00 245.84 L 823.21 252.42 L 830.42 259.00 L 837.96 259.18 L 845.50 259.35 L 838.53 259.93 L 831.56 260.50 L 834.53 262.50 C836.62,263.91 839.87,264.67 845.50,265.06 ZM 595.91 257.25 C607.79,257.41 617.92,257.64 618.44,257.77 C618.95,257.90 618.08,256.65 616.50,255.00 L 613.63 252.00 L 596.31 252.00 C586.79,252.00 579.00,251.60 579.00,251.12 C579.00,250.64 576.53,248.33 573.50,246.00 L 568.00 241.76 L 568.02 236.13 C568.03,232.44 568.34,230.98 568.92,231.91 C569.67,233.08 573.10,233.21 589.43,232.64 L 609.05 231.96 L 613.92 228.46 L 618.79 224.96 L 619.22 217.23 C619.46,212.98 619.84,208.82 620.08,208.00 C620.44,206.70 617.21,206.49 595.51,206.39 L 570.53 206.28 L 564.76 211.29 C559.23,216.10 559.00,216.49 559.00,221.15 C559.00,224.05 559.45,226.00 560.11,226.00 C560.88,226.00 561.10,228.97 560.81,235.62 L 560.40 245.24 L 567.36 251.10 L 574.33 256.96 ZM 145.13 250.83 C145.61,252.11 146.35,253.01 146.76,252.83 C151.35,250.78 161.97,244.27 161.98,243.48 C161.99,242.92 160.37,236.17 158.38,228.48 C153.92,211.29 147.05,183.01 142.96,165.00 C141.27,157.57 139.72,150.98 139.51,150.34 C139.25,149.54 137.32,149.91 133.32,151.53 C130.12,152.82 126.21,154.11 124.63,154.39 C120.85,155.08 120.76,155.23 122.05,158.61 C123.34,161.96 141.25,233.57 143.04,242.50 C143.70,245.80 144.64,249.55 145.13,250.83 ZM 725.18 251.95 L 732.37 258.00 L 775.35 258.00 L 773.00 255.50 C770.67,253.02 770.49,253.00 753.72,253.00 L 736.79 253.00 L 731.79 248.50 C729.04,246.02 726.36,244.00 725.84,244.00 C725.32,244.00 725.04,241.41 725.20,238.25 L 725.50 232.50 L 745.40 232.18 L 765.29 231.87 L 769.13 228.68 L 772.96 225.50 L 772.98 215.25 L 773.00 205.00 L 729.50 205.09 L 723.27 210.83 L 717.03 216.56 L 716.57 230.03 L 716.12 243.50 L 717.02 232.12 C717.52,225.86 718.23,220.46 718.60,220.12 C718.97,219.78 718.99,225.44 718.64,232.70 L 718.00 245.90 ZM 291.15 294.17 C292.42,299.02 293.72,303.00 294.04,303.00 C294.58,303.00 315.14,251.82 318.48,242.14 C319.31,239.75 319.74,237.38 319.43,236.89 C319.13,236.40 319.31,236.00 319.82,236.00 C321.70,236.00 322.87,227.09 323.55,207.50 L 324.25 187.50 L 321.62 181.28 C320.18,177.86 319.05,173.58 319.11,171.78 C319.21,168.68 319.26,168.73 320.05,172.69 C320.50,175.00 321.56,178.15 322.40,179.69 C323.83,182.34 323.92,181.84 323.96,170.75 C323.98,164.29 323.78,159.00 323.52,159.00 C323.26,159.00 321.08,162.04 318.68,165.75 C315.05,171.36 314.12,173.85 313.14,180.50 C312.49,184.90 311.07,194.23 309.98,201.23 C308.89,208.24 308.00,214.85 308.00,215.94 C308.00,217.02 309.96,220.74 312.36,224.20 C314.76,227.67 317.27,231.62 317.93,233.00 L 319.13 235.50 L 317.08 233.00 C315.95,231.62 313.34,228.16 311.27,225.30 C307.27,219.78 305.99,218.92 306.01,221.75 C306.03,226.90 295.79,267.32 291.90,277.42 L 288.85 285.33 ZM 687.50 209.50 L 688.04 252.00 L 672.27 251.88 L 656.50 251.75 L 645.00 240.07 L 645.06 228.78 L 645.11 217.50 L 655.95 208.95 L 671.72 209.22 ZM 222.23 353.74 C224.49,357.73 226.48,360.85 226.64,360.69 C226.80,360.53 226.49,358.85 225.95,356.95 C225.40,355.05 222.35,342.01 219.16,327.98 L 213.36 302.46 L 207.43 297.00 C204.17,293.99 193.40,283.29 183.50,273.20 C169.54,258.99 165.15,253.88 163.93,250.46 L 162.37 246.06 L 157.07 250.04 C154.15,252.23 150.47,254.79 148.88,255.73 C147.30,256.67 146.00,257.71 146.00,258.05 C146.00,258.39 150.39,262.89 155.75,268.04 C161.11,273.19 172.32,284.03 180.65,292.12 L 195.81 306.83 L 199.65 305.54 C204.74,303.84 211.70,302.62 210.73,303.60 C210.30,304.03 207.04,305.31 203.47,306.44 L 197.00 308.50 L 207.55 327.50 C213.36,337.95 219.96,349.76 222.23,353.74 ZM 271.00 166.36 C277.88,173.86 283.73,180.00 284.00,179.99 C284.27,179.99 287.82,174.79 291.87,168.45 L 299.25 156.90 L 298.57 150.70 C297.52,141.18 294.15,117.80 293.81,117.64 C293.64,117.56 290.75,116.08 287.39,114.35 L 281.27 111.20 L 279.55 114.85 C275.69,123.00 266.28,137.72 262.22,141.95 C255.62,148.84 256.04,150.03 271.00,166.36 ZM 243.79 218.90 C250.55,227.76 256.29,235.00 256.54,235.00 C257.09,235.00 276.00,197.34 275.99,196.26 C275.99,195.70 260.36,177.03 257.51,174.17 C257.17,173.84 249.26,180.50 233.03,194.78 C228.87,198.44 228.66,198.85 230.03,200.76 C230.84,201.89 237.03,210.05 243.79,218.90 ZM 652.00 241.42 L 659.41 249.00 L 685.00 249.00 L 685.00 213.00 L 660.58 213.00 L 652.00 221.42 ZM 110.26 148.10 C118.64,153.51 120.77,154.49 122.00,153.51 C124.28,151.68 131.73,149.00 134.52,149.00 C135.88,149.00 136.99,148.66 136.99,148.25 C136.98,147.84 133.27,145.52 128.74,143.10 C124.21,140.69 108.12,131.74 93.00,123.23 C77.88,114.72 63.13,106.42 60.23,104.79 C54.99,101.85 54.90,101.84 47.95,103.08 C44.10,103.77 41.07,104.67 41.22,105.08 C41.37,105.49 50.72,111.41 62.00,118.23 C87.11,133.43 97.01,139.56 110.26,148.10 ZM 474.50 289.26 C471.20,290.91 466.14,293.78 463.25,295.62 C460.36,297.47 458.00,298.77 458.00,298.53 C458.00,298.02 469.81,289.32 478.01,283.80 C480.00,282.46 481.28,281.37 482.68,280.48 C489.01,276.45 497.90,276.45 585.22,276.49 C594.72,276.50 605.15,276.50 616.61,276.50 C713.49,276.50 741.34,276.77 740.03,277.69 C738.79,278.56 717.49,279.15 660.42,279.92 C504.60,282.00 497.85,281.97 491.50,283.55 C490.75,283.74 490.00,283.95 489.00,284.19 C484.33,285.32 477.80,287.60 474.50,289.26 ZM 191.95 275.00 C197.92,280.99 200.52,283.02 200.76,281.88 C201.15,280.02 190.96,245.68 188.87,241.79 C187.63,239.47 164.66,218.00 163.42,218.00 C163.13,218.00 163.98,219.46 165.30,221.25 C168.84,226.03 169.58,227.47 167.98,226.49 C166.99,225.87 166.84,226.15 167.39,227.59 C168.03,229.25 167.85,229.21 166.06,227.29 C163.68,224.74 163.29,223.17 165.50,225.00 C167.63,226.77 167.37,224.64 165.21,222.69 C163.55,221.19 163.42,221.23 163.30,223.29 C163.15,225.90 165.67,239.01 167.28,244.00 C167.91,245.93 169.11,248.36 169.96,249.42 C171.28,251.07 171.29,251.22 170.00,250.46 C167.84,249.19 182.00,265.03 191.95,275.00 ZM 806.00 254.38 C809.80,257.81 810.37,258.00 817.00,258.00 C820.85,258.00 823.97,257.66 823.93,257.25 C823.85,256.38 812.61,247.17 810.75,246.46 C809.79,246.09 809.52,239.65 809.61,218.42 C809.70,194.97 809.94,190.63 811.26,189.31 C812.66,187.91 812.06,187.09 805.16,180.88 C798.14,174.57 797.14,174.00 793.09,174.00 L 788.67 174.00 L 802.00 187.81 L 802.00 250.77 ZM 763.71 223.79 L 759.42 228.00 L 725.00 228.00 L 725.00 223.72 C725.00,219.87 725.54,218.90 730.28,214.22 L 735.56 209.00 L 768.00 209.00 L 768.00 214.29 C768.00,219.20 767.69,219.89 763.71,223.79 ZM 606.21 224.30 L 602.42 228.00 L 568.00 228.00 L 568.03 223.75 C568.06,219.85 568.51,219.11 573.60,214.75 L 579.15 210.00 L 610.00 210.00 L 610.00 215.30 C610.00,220.11 609.65,220.93 606.21,224.30 ZM 305.64 165.37 C307.33,177.05 307.37,177.18 308.52,173.30 C309.16,171.13 312.46,165.98 315.84,161.85 C319.23,157.72 322.00,154.07 322.00,153.73 C322.00,153.39 319.90,151.13 317.34,148.71 L 312.68 144.30 L 310.85 130.94 C309.72,122.73 308.51,117.31 307.72,116.86 C307.00,116.46 302.44,112.96 297.58,109.07 C292.73,105.18 288.54,102.00 288.29,102.00 C288.04,102.00 290.17,104.94 293.03,108.54 L 298.24 115.09 L 301.08 134.29 C302.64,144.86 304.69,158.84 305.64,165.37 ZM 97.08 276.19 C97.14,277.12 97.30,277.16 97.64,276.31 C97.91,275.65 97.63,274.17 97.01,273.02 C96.39,271.87 96.17,269.93 96.51,268.71 C97.02,266.90 96.92,266.77 95.98,268.00 C95.03,269.24 94.91,269.11 95.32,267.25 C95.59,266.01 95.46,265.21 95.03,265.48 C94.61,265.74 93.49,263.83 92.56,261.23 C89.74,253.38 88.92,251.99 89.50,256.00 C89.88,258.66 89.77,259.02 89.07,257.50 C88.56,256.40 88.03,252.12 87.89,248.00 L 87.64 240.50 L 86.36 255.50 L 86.17 249.00 C85.83,237.88 84.57,236.45 83.94,246.50 L 83.38 255.50 L 83.04 246.50 C82.75,238.75 82.60,238.12 82.00,242.00 L 81.30 246.50 L 81.15 241.31 C81.07,238.45 80.66,235.91 80.25,235.65 C79.84,235.40 79.58,237.51 79.68,240.34 L 79.87 245.50 L 78.95 239.60 C78.45,236.36 77.84,233.51 77.61,233.27 C77.37,233.04 76.70,235.24 76.12,238.17 L 75.07 243.50 L 75.47 237.50 C75.98,229.82 74.58,233.96 72.84,245.27 C72.12,249.95 71.22,252.90 70.57,252.67 C69.98,252.46 69.61,251.43 69.73,250.39 C69.86,249.35 70.65,243.81 71.48,238.08 C73.25,225.91 73.33,224.00 72.06,224.00 C71.54,224.00 70.82,226.14 70.46,228.75 C69.80,233.48 66.31,250.99 65.39,254.18 C65.03,255.44 68.67,258.36 80.04,265.93 C88.37,271.47 95.59,275.75 96.09,275.44 C96.59,275.14 97.04,275.47 97.08,276.19 ZM 501.58 256.66 C501.16,257.74 501.46,257.82 502.96,257.02 C504.04,256.45 511.99,256.00 521.25,256.00 L 537.63 256.00 L 540.25 253.25 L 542.87 250.50 L 525.68 250.16 L 508.50 249.82 L 502.86 244.66 L 497.23 239.50 L 497.11 229.33 C497.01,219.66 497.13,218.99 499.70,215.95 L 502.39 212.75 L 498.95 214.49 C497.05,215.45 494.09,217.29 492.36,218.58 C489.28,220.89 489.23,221.06 489.69,227.72 C490.03,232.67 489.86,234.09 489.09,233.00 C488.30,231.88 488.03,233.07 488.02,237.75 C488.01,241.19 488.37,244.00 488.83,244.00 C490.68,244.00 502.09,255.33 501.58,256.66 ZM 257.00 241.41 C257.00,242.84 257.34,243.99 257.75,243.99 C258.16,243.98 262.48,237.02 267.34,228.52 C272.21,220.02 278.84,208.92 282.09,203.85 C285.34,198.79 288.00,194.37 288.00,194.05 C288.00,193.53 273.19,176.86 261.77,164.52 L 258.05 160.50 L 258.02 166.54 L 258.00 172.57 L 280.04 196.94 L 273.90 208.72 C270.52,215.20 266.99,221.62 266.05,223.00 C261.89,229.10 257.00,239.05 257.00,241.41 ZM 219.75 197.21 C226.38,197.46 227.86,197.20 230.00,195.43 C231.38,194.29 238.04,188.48 244.81,182.51 L 257.11 171.67 L 256.81 165.34 C256.64,161.85 256.19,159.12 255.82,159.25 C254.98,159.56 219.69,188.89 215.25,192.98 C213.46,194.63 212.00,196.18 212.00,196.44 C212.00,196.70 215.49,197.05 219.75,197.21 ZM 199.83 113.14 C206.80,116.24 213.10,118.83 213.83,118.89 C216.98,119.15 176.09,87.98 164.50,81.29 C148.70,72.16 128.02,63.38 125.07,64.54 C124.06,64.94 129.92,68.41 141.62,74.33 C160.78,84.03 175.37,94.06 183.07,102.83 C186.48,106.72 189.29,108.45 199.83,113.14 ZM 247.68 237.75 C251.76,242.84 255.29,247.00 255.54,247.00 C255.79,247.00 256.00,244.78 256.00,242.07 C256.00,237.37 255.63,236.70 247.51,226.90 C242.84,221.26 236.28,212.79 232.93,208.07 L 226.84 199.50 L 220.67 198.93 C217.28,198.62 214.44,198.40 214.36,198.43 C214.29,198.47 220.09,205.25 227.25,213.50 C234.42,221.75 243.61,232.66 247.68,237.75 ZM 263.15 111.22 C264.99,116.02 266.78,119.96 267.13,119.97 C267.47,119.99 269.03,117.56 270.59,114.58 C273.23,109.55 273.32,108.97 271.96,106.40 C269.60,101.93 249.14,81.20 241.00,75.02 C232.04,68.23 225.37,64.04 231.50,69.06 C239.84,75.89 250.80,87.91 255.21,95.07 C257.73,99.15 261.31,106.43 263.15,111.22 ZM 574.12 224.10 C574.88,224.58 581.06,224.98 587.85,224.98 L 600.20 225.00 L 603.68 221.52 C605.67,219.53 607.01,217.29 606.82,216.27 C606.51,214.71 605.01,214.47 593.89,214.22 L 581.31 213.94 L 577.03 218.58 C573.70,222.20 573.05,223.42 574.12,224.10 ZM 731.00 223.00 C731.00,223.62 736.20,224.00 744.51,224.00 L 758.03 224.00 L 760.98 220.75 C762.61,218.96 763.95,216.71 763.97,215.75 C764.00,214.17 762.73,214.00 751.12,214.00 L 738.23 214.00 L 734.62 218.00 C732.63,220.20 731.00,222.45 731.00,223.00 ZM 283.34 109.20 C287.28,111.24 290.67,112.92 290.87,112.95 C291.51,113.04 285.85,105.72 280.36,99.38 C273.14,91.05 256.77,77.94 249.48,74.68 L 243.50 72.00 L 247.00 75.11 C262.28,88.72 267.39,93.75 271.48,99.22 C275.27,104.28 277.58,106.22 283.34,109.20 ZM 279.48 334.50 C278.99,337.53 285.11,325.42 290.42,312.83 L 293.23 306.16 L 290.95 297.54 C289.70,292.80 288.34,289.28 287.93,289.71 C286.86,290.84 284.22,304.85 279.48,334.50 ZM 488.69 216.63 C488.98,217.39 489.44,218.00 489.72,218.00 C490.00,218.00 493.11,215.74 496.64,212.97 C500.16,210.20 504.18,207.50 505.58,206.97 C506.98,206.44 516.15,206.00 525.94,206.00 C540.56,206.00 543.98,205.73 545.00,204.50 C546.10,203.17 543.57,203.00 523.15,203.00 C502.03,203.00 500.12,203.14 500.70,204.66 C501.15,205.84 500.97,206.10 500.07,205.54 C498.42,204.52 487.96,214.72 488.69,216.63 ZM 90.32 221.22 C92.25,222.87 92.91,223.93 92.00,223.92 C90.25,223.89 80.74,215.61 66.26,201.50 L 55.99 191.50 L 54.53 181.50 C52.75,169.36 50.86,149.80 51.42,149.24 C52.11,148.56 56.01,150.97 68.50,159.78 C87.61,173.26 86.71,173.32 66.12,159.95 C59.32,155.53 53.62,152.05 53.46,152.21 C53.30,152.37 53.53,154.53 53.97,157.00 C54.41,159.48 55.32,168.25 56.00,176.50 L 57.22 191.50 L 67.02 201.02 C72.41,206.25 79.15,212.32 81.98,214.52 C84.82,216.71 88.58,219.72 90.32,221.22 ZM 257.00 142.14 C257.00,147.33 265.86,137.62 271.44,126.32 C273.56,122.02 276.35,117.07 277.65,115.32 C280.39,111.61 280.56,110.43 278.50,109.64 C277.49,109.25 277.00,109.69 277.00,110.98 C277.00,113.14 264.72,131.94 260.05,136.95 C258.37,138.74 257.00,141.08 257.00,142.14 ZM 781.55 277.37 C779.53,278.70 776.27,278.99 763.79,278.96 L 748.50 278.92 L 752.00 276.97 C755.12,275.23 757.34,275.04 772.30,275.17 C782.24,275.26 788.57,275.68 787.80,276.19 C783.65,278.98 782.68,279.26 783.37,277.49 C783.99,275.86 783.88,275.85 781.55,277.37 ZM 132.00 287.59 C132.00,288.45 130.32,287.72 125.27,284.66 C122.39,282.92 120.03,280.83 120.03,280.00 C120.03,278.88 140.60,265.02 144.90,263.25 C145.24,263.11 146.09,263.91 146.78,265.02 C147.94,266.87 147.85,267.00 145.74,266.47 C144.23,266.09 142.24,266.70 139.97,268.23 C138.06,269.52 133.48,272.26 129.79,274.31 C126.11,276.37 122.82,278.48 122.50,279.00 C122.18,279.52 124.19,281.57 126.96,283.57 C129.73,285.56 132.00,287.37 132.00,287.59 ZM 621.50 285.00 C621.12,285.62 613.02,285.96 600.19,285.90 C588.26,285.84 580.56,285.46 582.00,285.00 C585.78,283.79 622.25,283.79 621.50,285.00 ZM 154.47 143.21 C155.97,150.75 157.04,157.39 156.84,157.98 C156.32,159.54 150.98,136.87 150.43,130.74 C149.67,122.47 151.40,127.80 154.47,143.21 ZM 126.43 75.50 C136.70,80.48 136.10,81.39 125.50,76.89 C118.67,73.99 115.29,73.71 109.34,75.57 C108.33,75.88 109.72,75.01 112.43,73.63 L 117.35 71.11 ZM 292.10 244.50 C292.24,245.72 297.44,225.08 298.41,219.50 L 299.10 215.50 L 297.22 218.50 C295.65,221.02 291.71,241.01 292.10,244.50 ZM 246.87 229.75 C248.12,231.54 248.93,233.00 248.68,233.00 C248.05,233.00 234.95,217.36 231.96,213.04 C229.72,209.80 229.70,209.68 231.69,211.07 C233.68,212.46 241.77,222.42 246.87,229.75 ZM 688.20 180.80 C690.15,182.75 696.45,182.26 698.50,180.00 C700.29,178.02 700.25,178.00 693.65,178.00 C687.00,178.00 685.94,178.54 688.20,180.80 ZM 131.62 303.51 C139.80,309.25 146.93,313.96 147.45,313.97 C148.05,313.99 148.05,313.67 147.45,313.10 C146.44,312.14 119.52,293.96 117.00,292.53 C113.29,290.43 117.84,293.84 131.62,303.51 ZM 166.76 111.99 C157.61,116.28 157.00,116.47 157.00,115.13 C157.00,113.95 173.84,106.51 174.66,107.33 C175.02,107.69 171.47,109.79 166.76,111.99 ZM 291.52 163.20 C285.48,173.51 283.74,174.23 288.92,164.27 C293.87,154.76 295.92,151.77 295.97,154.02 C295.99,154.86 293.98,158.99 291.52,163.20 ZM 268.61 189.59 C270.59,192.48 271.98,195.44 271.69,196.17 C271.28,197.19 271.14,197.20 271.08,196.22 C271.04,195.52 268.52,191.95 265.50,188.28 C262.48,184.61 260.00,181.17 260.00,180.63 C260.00,179.03 264.72,183.95 268.61,189.59 ZM 798.50 277.00 C796.85,278.09 794.60,278.97 793.50,278.96 C791.62,278.94 791.64,278.82 793.86,276.97 C795.16,275.89 797.41,275.00 798.86,275.01 L 801.50 275.01 ZM 91.60 255.31 C93.04,259.61 94.38,262.95 94.59,262.74 C94.80,262.53 93.65,258.34 92.04,253.43 C90.42,248.52 89.07,245.17 89.05,246.00 C89.02,246.82 90.17,251.01 91.60,255.31 ZM 252.17 315.70 C254.61,318.65 251.16,316.61 246.50,312.36 L 241.50 307.79 L 246.30 311.10 C248.93,312.92 251.58,314.99 252.17,315.70 ZM 88.01 83.05 C89.38,84.10 90.02,84.97 89.44,84.98 C88.00,85.01 84.38,82.29 85.02,81.65 C85.30,81.37 86.65,82.00 88.01,83.05 ZM 77.73 240.25 C77.94,242.31 77.94,245.69 77.73,247.75 C77.51,249.81 77.34,248.12 77.34,244.00 C77.34,239.88 77.51,238.19 77.73,240.25 ZM 273.68 320.81 C273.97,321.53 273.94,322.40 273.60,322.73 C273.27,323.06 273.04,322.47 273.08,321.42 C273.13,320.25 273.36,320.01 273.68,320.81 Z" fill="rgb(15,15,15)"/>
</g>
</svg>